<?xml version="1.0" standalone="no"?><!DOCTYPE svg PUBLIC "-//W3C//DTD SVG 1.1//EN" "http://www.w3.org/Graphics/SVG/1.1/DTD/svg11.dtd"><svg t="1577196796436" class="icon" viewBox="0 0 1024 1024" version="1.1" xmlns="http://www.w3.org/2000/svg" p-id="3910" xmlns:xlink="http://www.w3.org/1999/xlink" width="128" height="128"><defs><style type="text/css"></style></defs><path d="M972.466203 405.737781l-98.050396-19.638749c-4.935285-14.171026-10.75114-27.932485-17.181345-41.243421l55.537317-83.326454c16.935605-25.37269 13.577154-59.202944-8.007039-80.725702l-61.557955-61.557955c-12.389409-12.389409-28.731142-18.758179-45.298136-18.758179-12.24606 0-24.635469 3.522278-35.427566 10.75114l-83.326454 55.516839c-13.37237-6.471162-27.133829-12.225582-41.304856-17.160867l-19.638749-98.070874c-5.959203-29.939365-32.25342-51.462123-62.7457-51.462123l-87.033037 0c-30.492281 0-56.766019 21.543237-62.7457 51.462123l-19.638749 98.070874c-14.171026 4.935285-27.932485 10.710183-41.243421 17.160867l-83.285497-55.516839c-10.853532-7.228862-23.201984-10.75114-35.489001-10.75114-16.546516 0-32.888249 6.36877-45.277658 18.758179l-61.537477 61.557955c-21.563715 21.563715-24.922166 55.353012-8.007039 80.725702l55.516839 83.326454c-6.471162 13.351892-12.225582 27.092873-17.140389 41.284377l-98.111831 19.618271c-29.918886 5.979682-51.462123 32.25342-51.462123 62.7457l0 87.033037c0 30.492281 21.543237 56.786497 51.462123 62.7457l98.070874 19.679706c4.935285 14.171026 10.710183 27.932485 17.140389 41.243421l-55.475882 83.326454c-16.935605 25.37269-13.556675 59.202944 8.007039 80.725702l61.557955 61.557955c12.389409 12.389409 28.731142 18.758179 45.277658 18.758179 12.287017 0 24.676426-3.542757 35.448044-10.75114l83.326454-55.537317c13.351892 6.491641 27.092873 12.24606 41.284377 17.181345l19.618271 98.050396c5.979682 29.939365 32.25342 51.482601 62.7457 51.482601l87.033037 0c30.492281 0 56.786497-21.563715 62.7457-51.482601l19.679706-98.050396c14.171026-4.935285 27.932485-10.75114 41.243421-17.181345l83.326454 55.537317c10.812575 7.208383 23.201984 10.75114 35.427566 10.75114 16.566995 0 32.929206-6.36877 45.318615-18.758179l61.557955-61.557955c21.563715-21.563715 24.922166-55.353012 8.007039-80.725702l-55.537317-83.326454c6.491641-13.37237 12.24606-27.133829 17.181345-41.304856l98.050396-19.618271c29.918886-5.918247 51.482601-32.25342 51.482601-62.7457l0-87.033037c0-30.492281-21.563715-56.766019-51.482601-62.7457zM861.842093 575.155268c-22.239501 4.443804-40.444764 20.314535-47.857931 41.75538-4.136629 11.816015-8.928566 23.263419-14.293896 34.362691-9.952484 20.437405-8.25278 44.581393 4.320934 63.421486l55.557795 83.326454-61.557955 61.557955-83.326454-55.537317c-10.689705-7.12647-23.079114-10.75114-35.489001-10.75114-9.50196 0-19.065355 2.109271-27.87105 6.36877-11.140229 5.365331-22.567155 10.239181-34.424126 14.37581-21.37941 7.413167-37.25014 25.638909-41.693944 47.857931l-19.679706 98.111831-87.033037 0-19.618271-98.111831c-4.443804-22.239501-20.314535-40.444764-41.734901-47.857931-11.816015-4.136629-23.283897-8.928566-34.403648-14.293896-8.826174-4.320934-18.36909-6.430206-27.912007-6.430206-12.450844 0-24.799296 3.62467-35.489001 10.75114l-83.326454 55.557795-61.557955-61.557955 55.516839-83.326454c12.573714-18.88105 14.211983-43.00456 4.382369-63.360051-5.385809-11.140229-10.198224-22.567155-14.334853-34.424126-7.433645-21.37941-25.659387-37.25014-47.87841-41.693944l-98.070874-19.679706-0.061435-87.073994 98.111831-19.618271c22.198544-4.443804 40.444764-20.314535 47.87841-41.734901 4.136629-11.816015 8.887609-23.283897 14.293896-34.403648 9.911527-20.416927 8.25278-44.540437-4.361891-63.38053l-55.475882-83.326454 61.537477-61.557955 83.326454 55.516839c10.689705 7.12647 23.079114 10.75114 35.489001 10.75114 9.50196 0 19.044876-2.109271 27.87105-6.36877 11.099272-5.365331 22.567155-10.198224 34.403648-14.334853 21.399888-7.433645 37.270618-25.659387 41.734901-47.857931l19.638749-98.070874 87.033037-0.040957 19.618271 98.111831c4.443804 22.198544 20.314535 40.444764 41.75538 47.87841 11.816015 4.136629 23.263419 8.887609 34.362691 14.293896 8.867131 4.279978 18.36909 6.409727 27.932485 6.409727 12.450844 0 24.799296-3.62467 35.489001-10.75114l83.326454-55.516839 61.557955 61.557955-55.557795 83.326454c-12.573714 18.88105-14.171026 42.963603-4.382369 63.360051 5.365331 11.099272 10.239181 22.567155 14.37581 34.403648 7.413167 21.399888 25.638909 37.270618 47.857931 41.734901l98.050396 19.638749 0.102392 87.033037-98.111831 19.638749zM511.989761 288.007679c-123.668826 0-223.992321 100.303016-223.992321 223.971842 0 123.709783 100.303016 223.992321 223.992321 223.992321s223.992321-100.303016 223.992321-223.992321c0-123.668826-100.303016-223.971842-223.992321-223.971842zM511.989761 707.9984c-108.207663 0-195.977922-87.790737-195.977922-195.977922 0-108.207663 87.770258-195.977922 195.977922-195.977922 108.187185 0 195.977922 87.770258 195.977922 195.977922 0 108.187185-87.811215 195.977922-195.977922 195.977922zM511.989761 384.010239c-70.711783 0-127.989761 57.277978-127.989761 127.989761 0 70.691305 57.277978 127.989761 127.989761 127.989761 70.691305 0 127.989761-57.298456 127.989761-127.989761s-57.298456-127.989761-127.989761-127.989761zM511.989761 608.023038c-52.998 0-96.00256-43.00456-96.00256-96.00256s43.00456-96.00256 96.00256-96.00256 96.00256 43.00456 96.00256 96.00256c0 52.977522-43.00456 96.00256-96.00256 96.00256z" p-id="3911" fill="#ffffff"></path></svg>