<?xml version="1.0" encoding="UTF-8" standalone="no"?>
<!DOCTYPE svg PUBLIC "-//W3C//DTD SVG 1.1//EN"
 "http://www.w3.org/Graphics/SVG/1.1/DTD/svg11.dtd">
<!-- Generated by graphviz version 7.1.0 (20230121.1956)
 -->
<!-- Title: Application Pages: 1 -->
<svg width="2633pt" height="1313pt"
 viewBox="0.00 0.00 2632.50 1312.50" xmlns="http://www.w3.org/2000/svg" xmlns:xlink="http://www.w3.org/1999/xlink">
<g id="graph0" class="graph" transform="scale(1 1) rotate(0) translate(4 1308.5)">
<title>Application</title>
<polygon fill="white" stroke="none" points="-4,4 -4,-1308.5 2628.5,-1308.5 2628.5,4 -4,4"/>
<g id="clust1" class="cluster">
<title>cluster_app.Application</title>
<polygon fill="#fff7f0" stroke="black" stroke-dasharray="5,2" points="394,-1018.5 394,-1296.5 938,-1296.5 938,-1018.5 394,-1018.5"/>
<text text-anchor="middle" x="666" y="-1269.3" font-family="Times,serif" font-size="29.00">/internal/app</text>
</g>
<g id="clust4" class="cluster">
<title>cluster_logic_backend_factory.BackendFactory</title>
<polygon fill="#fff7f0" stroke="black" stroke-dasharray="5,2" points="403,-182 403,-428 1354,-428 1354,-182 403,-182"/>
<text text-anchor="middle" x="878.5" y="-404" font-family="Times,serif" font-size="25.00">/internal/logic/logic_backend_factory</text>
</g>
<g id="clust2" class="cluster">
<title>cluster_config.Application</title>
<polygon fill="#fff7f0" stroke="black" stroke-dasharray="5,2" points="8,-677 8,-1001.5 484,-1001.5 484,-677 8,-677"/>
<text text-anchor="middle" x="246" y="-976.7" font-family="Times,serif" font-size="26.00">/internal/config</text>
</g>
<g id="clust5" class="cluster">
<title>cluster_logic_log_parser.LogParser</title>
<polygon fill="#fff7f0" stroke="black" stroke-dasharray="5,2" points="1768,-182 1768,-428 2132,-428 2132,-182 1768,-182"/>
<text text-anchor="middle" x="1950" y="-404" font-family="Times,serif" font-size="25.00">/internal/logic/logic_log_parser</text>
</g>
<g id="clust8" class="cluster">
<title>cluster_svc_config.Service</title>
<polygon fill="#fff7f0" stroke="black" stroke-dasharray="5,2" points="492,-562 492,-830.5 952,-830.5 952,-562 492,-562"/>
<text text-anchor="middle" x="722" y="-805.7" font-family="Times,serif" font-size="26.00">/internal/svc_impls/svc_config</text>
</g>
<g id="clust9" class="cluster">
<title>cluster_svc_logger.Service</title>
<polygon fill="#fff7f0" stroke="black" stroke-dasharray="5,2" points="960,-562 960,-830.5 2171,-830.5 2171,-562 960,-562"/>
<text text-anchor="middle" x="1565.5" y="-805.7" font-family="Times,serif" font-size="26.00">/internal/svc_impls/svc_logger</text>
</g>
<!-- app.Application -->
<g id="node1" class="node">
<title>app.Application</title>
<polygon fill="#b7d3ff" stroke="black" points="836,-1227.5 620,-1227.5 620,-1231.5 608,-1231.5 608,-1153.5 836,-1153.5 836,-1227.5"/>
<polyline fill="none" stroke="black" points="608,-1227.5 620,-1227.5"/>
<text text-anchor="middle" x="722" y="-1183.3" font-family="Times,serif" font-size="29.00">app.Application</text>
</g>
<!-- app.Application:ConfigApplication -->
<g id="node2" class="node">
<title>app.Application:ConfigApplication</title>
<polygon fill="#f0bca2" stroke="black" points="649,-1116.5 423,-1116.5 423,-1047.5 649,-1047.5 649,-1116.5"/>
<text text-anchor="middle" x="536" y="-1075.78" font-family="Times,serif" font-size="24.65">ConfigApplication</text>
</g>
<!-- app.Application&#45;&gt;app.Application:ConfigApplication -->
<g id="edge1" class="edge">
<title>app.Application&#45;&gt;app.Application:ConfigApplication</title>
<path fill="none" stroke="black" d="M658.51,-1153.15C640.55,-1142.87 620.96,-1131.65 602.81,-1121.26"/>
<ellipse fill="black" stroke="black" cx="599.04" cy="-1119.1" rx="4" ry="4"/>
</g>
<!-- app.Application:Config -->
<g id="node6" class="node">
<title>app.Application:Config</title>
<polygon fill="#f0bca2" stroke="black" points="777,-1116.5 667,-1116.5 667,-1047.5 777,-1047.5 777,-1116.5"/>
<text text-anchor="middle" x="722" y="-1075.78" font-family="Times,serif" font-size="24.65">Config</text>
</g>
<!-- app.Application&#45;&gt;app.Application:Config -->
<g id="edge5" class="edge">
<title>app.Application&#45;&gt;app.Application:Config</title>
<path fill="none" stroke="black" d="M722,-1153.15C722,-1144.29 722,-1134.73 722,-1125.61"/>
<ellipse fill="black" stroke="black" cx="722" cy="-1121.18" rx="4" ry="4"/>
</g>
<!-- app.Application:Logger -->
<g id="node10" class="node">
<title>app.Application:Logger</title>
<polygon fill="#f0bca2" stroke="black" points="908.5,-1116.5 795.5,-1116.5 795.5,-1047.5 908.5,-1047.5 908.5,-1116.5"/>
<text text-anchor="middle" x="852" y="-1075.78" font-family="Times,serif" font-size="24.65">Logger</text>
</g>
<!-- app.Application&#45;&gt;app.Application:Logger -->
<g id="edge9" class="edge">
<title>app.Application&#45;&gt;app.Application:Logger</title>
<path fill="none" stroke="black" d="M766.38,-1153.15C778.54,-1143.18 791.78,-1132.34 804.13,-1122.22"/>
<ellipse fill="black" stroke="black" cx="807.41" cy="-1119.53" rx="4" ry="4"/>
</g>
<!-- config.Application -->
<g id="node3" class="node">
<title>config.Application</title>
<polygon fill="#b7d3ff" stroke="black" points="458,-938.5 236,-938.5 236,-942.5 224,-942.5 224,-871.5 458,-871.5 458,-938.5"/>
<polyline fill="none" stroke="black" points="224,-938.5 236,-938.5"/>
<text text-anchor="middle" x="341" y="-898.7" font-family="Times,serif" font-size="26.00">config.Application</text>
</g>
<!-- app.Application:ConfigApplication&#45;&gt;config.Application -->
<g id="edge2" class="edge">
<title>app.Application:ConfigApplication&#45;&gt;config.Application</title>
<path fill="none" stroke="black" d="M498.4,-1047.26C466.26,-1018.42 419.95,-976.85 385.87,-946.27"/>
<polygon fill="black" stroke="black" points="388.4,-943.83 378.62,-939.76 383.72,-949.04 388.4,-943.83"/>
</g>
<!-- config.Application:Production (bool) -->
<g id="node4" class="node">
<title>config.Application:Production (bool)</title>
<polygon fill="#f0bca2" stroke="black" points="230,-765 34,-765 34,-703 230,-703 230,-765"/>
<text text-anchor="middle" x="132" y="-728.32" font-family="Times,serif" font-size="22.10">Production (bool)</text>
</g>
<!-- config.Application&#45;&gt;config.Application:Production (bool) -->
<g id="edge3" class="edge">
<title>config.Application&#45;&gt;config.Application:Production (bool)</title>
<path fill="none" stroke="black" d="M293.26,-871.16C275.89,-858.8 256.27,-844.37 239,-830.5 215.63,-811.73 190.57,-789.5 170.59,-771.2"/>
<ellipse fill="black" stroke="black" cx="167.33" cy="-768.21" rx="4" ry="4"/>
</g>
<!-- config.Application:ListenAddr (string) -->
<g id="node5" class="node">
<title>config.Application:ListenAddr (string)</title>
<polygon fill="#f0bca2" stroke="black" points="458,-765 248,-765 248,-703 458,-703 458,-765"/>
<text text-anchor="middle" x="353" y="-728.32" font-family="Times,serif" font-size="22.10">ListenAddr (string)</text>
</g>
<!-- config.Application&#45;&gt;config.Application:ListenAddr (string) -->
<g id="edge4" class="edge">
<title>config.Application&#45;&gt;config.Application:ListenAddr (string)</title>
<path fill="none" stroke="black" d="M343.34,-871.01C345.31,-843.24 348.14,-803.47 350.22,-774.1"/>
<ellipse fill="black" stroke="black" cx="350.53" cy="-769.84" rx="4" ry="4"/>
</g>
<!-- service.Config -->
<g id="node7" class="node">
<title>service.Config</title>
<polygon fill="#f9e3b5" stroke="black" points="817,-938.5 627,-938.5 627,-934.5 623,-934.5 623,-930.5 627,-930.5 627,-879.5 623,-879.5 623,-875.5 627,-875.5 627,-871.5 817,-871.5 817,-938.5"/>
<polyline fill="none" stroke="black" points="627,-934.5 631,-934.5 631,-930.5 627,-930.5"/>
<polyline fill="none" stroke="black" points="627,-879.5 631,-879.5 631,-875.5 627,-875.5"/>
<text text-anchor="middle" x="722" y="-898.7" font-family="Times,serif" font-size="26.00">service.Config</text>
</g>
<!-- app.Application:Config&#45;&gt;service.Config -->
<g id="edge6" class="edge">
<title>app.Application:Config&#45;&gt;service.Config</title>
<path fill="none" stroke="black" d="M722,-1047.26C722,-1019.64 722,-980.35 722,-950.22"/>
<polygon fill="black" stroke="black" points="725.5,-950.26 722,-940.26 718.5,-950.26 725.5,-950.26"/>
</g>
<!-- svc_config.Service -->
<g id="node8" class="node">
<title>svc_config.Service</title>
<polygon fill="#b7d3ff" stroke="black" points="839.5,-767.5 616.5,-767.5 616.5,-771.5 604.5,-771.5 604.5,-700.5 839.5,-700.5 839.5,-767.5"/>
<polyline fill="none" stroke="black" points="604.5,-767.5 616.5,-767.5"/>
<text text-anchor="middle" x="722" y="-727.7" font-family="Times,serif" font-size="26.00">svc_config.Service</text>
</g>
<!-- service.Config&#45;&gt;svc_config.Service -->
<g id="edge7" class="edge">
<title>service.Config&#45;&gt;svc_config.Service</title>
<path fill="none" stroke="black" stroke-dasharray="5,2" d="M722,-871.01C722,-844.84 722,-808.01 722,-779.27"/>
<polygon fill="black" stroke="black" points="725.5,-779.42 722,-769.42 718.5,-779.42 725.5,-779.42"/>
<text text-anchor="middle" x="735" y="-842.3" font-family="Times,serif" font-size="14.00">impl</text>
</g>
<!-- svc_config.Service:BackendListConfig (config.BackendList) -->
<g id="node9" class="node">
<title>svc_config.Service:BackendListConfig (config.BackendList)</title>
<polygon fill="#f0bca2" stroke="black" points="925.5,-650 518.5,-650 518.5,-588 925.5,-588 925.5,-650"/>
<text text-anchor="middle" x="722" y="-613.32" font-family="Times,serif" font-size="22.10">BackendListConfig (config.BackendList)</text>
</g>
<!-- svc_config.Service&#45;&gt;svc_config.Service:BackendListConfig (config.BackendList) -->
<g id="edge8" class="edge">
<title>svc_config.Service&#45;&gt;svc_config.Service:BackendListConfig (config.BackendList)</title>
<path fill="none" stroke="black" d="M722,-700.01C722,-687.2 722,-672.43 722,-659.09"/>
<ellipse fill="black" stroke="black" cx="722" cy="-654.63" rx="4" ry="4"/>
</g>
<!-- service.Logger -->
<g id="node11" class="node">
<title>service.Logger</title>
<polygon fill="#f9e3b5" stroke="black" points="1317,-938.5 1125,-938.5 1125,-934.5 1121,-934.5 1121,-930.5 1125,-930.5 1125,-879.5 1121,-879.5 1121,-875.5 1125,-875.5 1125,-871.5 1317,-871.5 1317,-938.5"/>
<polyline fill="none" stroke="black" points="1125,-934.5 1129,-934.5 1129,-930.5 1125,-930.5"/>
<polyline fill="none" stroke="black" points="1125,-879.5 1129,-879.5 1129,-875.5 1125,-875.5"/>
<text text-anchor="middle" x="1221" y="-898.7" font-family="Times,serif" font-size="26.00">service.Logger</text>
</g>
<!-- app.Application:Logger&#45;&gt;service.Logger -->
<g id="edge10" class="edge">
<title>app.Application:Logger&#45;&gt;service.Logger</title>
<path fill="none" stroke="black" d="M908.85,-1054.04C971.09,-1024.52 1071.34,-976.98 1141.38,-943.76"/>
<polygon fill="black" stroke="black" points="1142.59,-947.06 1150.12,-939.61 1139.59,-940.74 1142.59,-947.06"/>
</g>
<!-- svc_logger.Service -->
<g id="node12" class="node">
<title>svc_logger.Service</title>
<polygon fill="#b7d3ff" stroke="black" points="1717,-767.5 1495,-767.5 1495,-771.5 1483,-771.5 1483,-700.5 1717,-700.5 1717,-767.5"/>
<polyline fill="none" stroke="black" points="1483,-767.5 1495,-767.5"/>
<text text-anchor="middle" x="1600" y="-727.7" font-family="Times,serif" font-size="26.00">svc_logger.Service</text>
</g>
<!-- service.Logger&#45;&gt;svc_logger.Service -->
<g id="edge11" class="edge">
<title>service.Logger&#45;&gt;svc_logger.Service</title>
<path fill="none" stroke="black" stroke-dasharray="5,2" d="M1294.97,-871.01C1358.36,-842.75 1449.64,-802.05 1515.82,-772.54"/>
<polygon fill="black" stroke="black" points="1517.12,-775.79 1524.83,-768.52 1514.27,-769.4 1517.12,-775.79"/>
<text text-anchor="middle" x="1378" y="-842.3" font-family="Times,serif" font-size="14.00">impl</text>
</g>
<!-- svc_logger.Service:BackendListConfig (config.BackendList) -->
<g id="node13" class="node">
<title>svc_logger.Service:BackendListConfig (config.BackendList)</title>
<polygon fill="#f0bca2" stroke="black" points="1393.5,-650 986.5,-650 986.5,-588 1393.5,-588 1393.5,-650"/>
<text text-anchor="middle" x="1190" y="-613.32" font-family="Times,serif" font-size="22.10">BackendListConfig (config.BackendList)</text>
</g>
<!-- svc_logger.Service&#45;&gt;svc_logger.Service:BackendListConfig (config.BackendList) -->
<g id="edge12" class="edge">
<title>svc_logger.Service&#45;&gt;svc_logger.Service:BackendListConfig (config.BackendList)</title>
<path fill="none" stroke="black" d="M1482.51,-700.62C1428.15,-685.64 1363.69,-667.87 1309.13,-652.83"/>
<ellipse fill="black" stroke="black" cx="1304.8" cy="-651.64" rx="4" ry="4"/>
</g>
<!-- svc_logger.Service:BackendFactory -->
<g id="node14" class="node">
<title>svc_logger.Service:BackendFactory</title>
<polygon fill="#f0bca2" stroke="black" points="1596,-650 1412,-650 1412,-588 1596,-588 1596,-650"/>
<text text-anchor="middle" x="1504" y="-613.32" font-family="Times,serif" font-size="22.10">BackendFactory</text>
</g>
<!-- svc_logger.Service&#45;&gt;svc_logger.Service:BackendFactory -->
<g id="edge13" class="edge">
<title>svc_logger.Service&#45;&gt;svc_logger.Service:BackendFactory</title>
<path fill="none" stroke="black" d="M1571.97,-700.01C1560.47,-686.46 1547.09,-670.72 1535.27,-656.8"/>
<ellipse fill="black" stroke="black" cx="1532.51" cy="-653.56" rx="4" ry="4"/>
</g>
<!-- svc_logger.Service:QueryBuilder -->
<g id="node23" class="node">
<title>svc_logger.Service:QueryBuilder</title>
<polygon fill="#f0bca2" stroke="black" points="1775.5,-650 1614.5,-650 1614.5,-588 1775.5,-588 1775.5,-650"/>
<text text-anchor="middle" x="1695" y="-613.32" font-family="Times,serif" font-size="22.10">QueryBuilder</text>
</g>
<!-- svc_logger.Service&#45;&gt;svc_logger.Service:QueryBuilder -->
<g id="edge22" class="edge">
<title>svc_logger.Service&#45;&gt;svc_logger.Service:QueryBuilder</title>
<path fill="none" stroke="black" d="M1627.73,-700.01C1639.12,-686.46 1652.36,-670.72 1664.06,-656.8"/>
<ellipse fill="black" stroke="black" cx="1666.77" cy="-653.58" rx="4" ry="4"/>
</g>
<!-- svc_logger.Service:LogParser -->
<g id="node26" class="node">
<title>svc_logger.Service:LogParser</title>
<polygon fill="#f0bca2" stroke="black" points="1922.5,-650 1793.5,-650 1793.5,-588 1922.5,-588 1922.5,-650"/>
<text text-anchor="middle" x="1858" y="-613.32" font-family="Times,serif" font-size="22.10">LogParser</text>
</g>
<!-- svc_logger.Service&#45;&gt;svc_logger.Service:LogParser -->
<g id="edge25" class="edge">
<title>svc_logger.Service&#45;&gt;svc_logger.Service:LogParser</title>
<path fill="none" stroke="black" d="M1675.32,-700.01C1709.88,-684.87 1750.7,-667 1784.98,-651.98"/>
<ellipse fill="black" stroke="black" cx="1788.97" cy="-650.24" rx="4" ry="4"/>
</g>
<!-- svc_logger.Service:AggregationParser -->
<g id="node32" class="node">
<title>svc_logger.Service:AggregationParser</title>
<polygon fill="#f0bca2" stroke="black" points="2145,-650 1941,-650 1941,-588 2145,-588 2145,-650"/>
<text text-anchor="middle" x="2043" y="-613.32" font-family="Times,serif" font-size="22.10">AggregationParser</text>
</g>
<!-- svc_logger.Service&#45;&gt;svc_logger.Service:AggregationParser -->
<g id="edge31" class="edge">
<title>svc_logger.Service&#45;&gt;svc_logger.Service:AggregationParser</title>
<path fill="none" stroke="black" d="M1717.3,-704.25C1778.67,-689.07 1855.24,-669.91 1932.1,-649.96"/>
<ellipse fill="black" stroke="black" cx="1936.15" cy="-648.91" rx="4" ry="4"/>
</g>
<!-- logic.BackendFactory -->
<g id="node15" class="node">
<title>logic.BackendFactory</title>
<polygon fill="#f9e3b5" stroke="black" points="1422.5,-535 1161.5,-535 1161.5,-531 1157.5,-531 1157.5,-527 1161.5,-527 1161.5,-477 1157.5,-477 1157.5,-473 1161.5,-473 1161.5,-469 1422.5,-469 1422.5,-535"/>
<polyline fill="none" stroke="black" points="1161.5,-531 1165.5,-531 1165.5,-527 1161.5,-527"/>
<polyline fill="none" stroke="black" points="1161.5,-477 1165.5,-477 1165.5,-473 1161.5,-473"/>
<text text-anchor="middle" x="1292" y="-496" font-family="Times,serif" font-size="25.00">logic.BackendFactory</text>
</g>
<!-- svc_logger.Service:BackendFactory&#45;&gt;logic.BackendFactory -->
<g id="edge14" class="edge">
<title>svc_logger.Service:BackendFactory&#45;&gt;logic.BackendFactory</title>
<path fill="none" stroke="black" d="M1449.58,-587.6C1434.52,-579.25 1418.15,-570.23 1403,-562 1390.24,-555.07 1376.61,-547.76 1363.43,-540.73"/>
<polygon fill="black" stroke="black" points="1365.27,-537.74 1354.8,-536.13 1361.98,-543.92 1365.27,-537.74"/>
</g>
<!-- logic_backend_factory.BackendFactory -->
<g id="node16" class="node">
<title>logic_backend_factory.BackendFactory</title>
<polygon fill="#b7d3ff" stroke="black" points="1328.5,-367 901.5,-367 901.5,-371 889.5,-371 889.5,-303 1328.5,-303 1328.5,-367"/>
<polyline fill="none" stroke="black" points="889.5,-367 901.5,-367"/>
<text text-anchor="middle" x="1109" y="-329" font-family="Times,serif" font-size="25.00">logic_backend_factory.BackendFactory</text>
</g>
<!-- logic.BackendFactory&#45;&gt;logic_backend_factory.BackendFactory -->
<g id="edge15" class="edge">
<title>logic.BackendFactory&#45;&gt;logic_backend_factory.BackendFactory</title>
<path fill="none" stroke="black" stroke-dasharray="5,2" d="M1256.28,-468.79C1226.39,-441.85 1183.67,-403.32 1151.93,-374.7"/>
<polygon fill="black" stroke="black" points="1154.59,-372.4 1144.82,-368.3 1149.9,-377.59 1154.59,-372.4"/>
<text text-anchor="middle" x="1245" y="-439.8" font-family="Times,serif" font-size="14.00">impl</text>
</g>
<!-- logic_backend_factory.BackendFactory:BackendListConfig (config.BackendList) -->
<g id="node17" class="node">
<title>logic_backend_factory.BackendFactory:BackendListConfig (config.BackendList)</title>
<polygon fill="#f0bca2" stroke="black" points="817.5,-266 428.5,-266 428.5,-207 817.5,-207 817.5,-266"/>
<text text-anchor="middle" x="623" y="-231" font-family="Times,serif" font-size="21.25">BackendListConfig (config.BackendList)</text>
</g>
<!-- logic_backend_factory.BackendFactory&#45;&gt;logic_backend_factory.BackendFactory:BackendListConfig (config.BackendList) -->
<g id="edge16" class="edge">
<title>logic_backend_factory.BackendFactory&#45;&gt;logic_backend_factory.BackendFactory:BackendListConfig (config.BackendList)</title>
<path fill="none" stroke="black" d="M950.54,-302.54C895.06,-291.52 832.86,-279.17 777.7,-268.22"/>
<ellipse fill="black" stroke="black" cx="773.32" cy="-267.35" rx="4" ry="4"/>
</g>
<!-- logic_backend_factory.BackendFactory:m (map[string]interface {}) -->
<g id="node18" class="node">
<title>logic_backend_factory.BackendFactory:m (map[string]interface {})</title>
<polygon fill="#f0bca2" stroke="black" points="1106.5,-266 835.5,-266 835.5,-207 1106.5,-207 1106.5,-266"/>
<text text-anchor="middle" x="971" y="-231" font-family="Times,serif" font-size="21.25">m (map[string]interface {})</text>
</g>
<!-- logic_backend_factory.BackendFactory&#45;&gt;logic_backend_factory.BackendFactory:m (map[string]interface {}) -->
<g id="edge17" class="edge">
<title>logic_backend_factory.BackendFactory&#45;&gt;logic_backend_factory.BackendFactory:m (map[string]interface {})</title>
<path fill="none" stroke="black" d="M1064.2,-302.67C1049.86,-292.64 1033.92,-281.5 1019.34,-271.31"/>
<ellipse fill="black" stroke="black" cx="1016" cy="-268.96" rx="4" ry="4"/>
</g>
<!-- logic_backend_factory.BackendFactory:mu -->
<g id="node19" class="node">
<title>logic_backend_factory.BackendFactory:mu</title>
<polygon fill="#f0bca2" stroke="black" points="1189,-266 1125,-266 1125,-207 1189,-207 1189,-266"/>
<text text-anchor="middle" x="1157" y="-231" font-family="Times,serif" font-size="21.25">mu</text>
</g>
<!-- logic_backend_factory.BackendFactory&#45;&gt;logic_backend_factory.BackendFactory:mu -->
<g id="edge18" class="edge">
<title>logic_backend_factory.BackendFactory&#45;&gt;logic_backend_factory.BackendFactory:mu</title>
<path fill="none" stroke="black" d="M1124.58,-302.67C1129.07,-293.65 1134.01,-283.72 1138.65,-274.39"/>
<ellipse fill="black" stroke="black" cx="1140.63" cy="-270.41" rx="4" ry="4"/>
</g>
<!-- logic_backend_factory.BackendFactory:httpClient -->
<g id="node21" class="node">
<title>logic_backend_factory.BackendFactory:httpClient</title>
<polygon fill="#f0bca2" stroke="black" points="1329,-266 1207,-266 1207,-207 1329,-207 1329,-266"/>
<text text-anchor="middle" x="1268" y="-231" font-family="Times,serif" font-size="21.25">httpClient</text>
</g>
<!-- logic_backend_factory.BackendFactory&#45;&gt;logic_backend_factory.BackendFactory:httpClient -->
<g id="edge20" class="edge">
<title>logic_backend_factory.BackendFactory&#45;&gt;logic_backend_factory.BackendFactory:httpClient</title>
<path fill="none" stroke="black" d="M1160.62,-302.67C1177.29,-292.55 1195.84,-281.3 1212.76,-271.03"/>
<ellipse fill="black" stroke="black" cx="1216.56" cy="-268.72" rx="4" ry="4"/>
</g>
<!-- sync.Mutex -->
<g id="node20" class="node">
<title>sync.Mutex</title>
<polygon fill="#d4f9d1" stroke="black" points="1199.5,-140 1068.5,-140 1068.5,-103 1205.5,-103 1205.5,-134 1199.5,-140"/>
<polyline fill="none" stroke="black" points="1199.5,-140 1199.5,-134"/>
<polyline fill="none" stroke="black" points="1205.5,-134 1199.5,-134"/>
<text text-anchor="middle" x="1137" y="-115.2" font-family="Times,serif" font-size="26.00">sync.Mutex</text>
</g>
<!-- logic_backend_factory.BackendFactory:mu&#45;&gt;sync.Mutex -->
<g id="edge19" class="edge">
<title>logic_backend_factory.BackendFactory:mu&#45;&gt;sync.Mutex</title>
<path fill="none" stroke="black" d="M1151.9,-206.69C1148.89,-189.69 1145.1,-168.25 1142.09,-151.25"/>
<polygon fill="black" stroke="black" points="1145.61,-151.04 1140.42,-141.8 1138.71,-152.26 1145.61,-151.04"/>
</g>
<!-- http.Client -->
<g id="node22" class="node">
<title>http.Client</title>
<polygon fill="#d4f9d1" stroke="black" points="1346,-140 1224,-140 1224,-103 1352,-103 1352,-134 1346,-140"/>
<polyline fill="none" stroke="black" points="1346,-140 1346,-134"/>
<polyline fill="none" stroke="black" points="1352,-134 1346,-134"/>
<text text-anchor="middle" x="1288" y="-115.2" font-family="Times,serif" font-size="26.00">http.Client</text>
</g>
<!-- logic_backend_factory.BackendFactory:httpClient&#45;&gt;http.Client -->
<g id="edge21" class="edge">
<title>logic_backend_factory.BackendFactory:httpClient&#45;&gt;http.Client</title>
<path fill="none" stroke="black" d="M1273.1,-206.69C1276.11,-189.69 1279.9,-168.25 1282.91,-151.25"/>
<polygon fill="black" stroke="black" points="1286.29,-152.26 1284.58,-141.8 1279.39,-151.04 1286.29,-152.26"/>
</g>
<!-- logic.QueryBuilder -->
<g id="node24" class="node">
<title>logic.QueryBuilder</title>
<polygon fill="#f9e3b5" stroke="black" points="1757.5,-534 1526.5,-534 1526.5,-530 1522.5,-530 1522.5,-526 1526.5,-526 1526.5,-478 1522.5,-478 1522.5,-474 1526.5,-474 1526.5,-470 1757.5,-470 1757.5,-534"/>
<polyline fill="none" stroke="black" points="1526.5,-530 1530.5,-530 1530.5,-526 1526.5,-526"/>
<polyline fill="none" stroke="black" points="1526.5,-478 1530.5,-478 1530.5,-474 1526.5,-474"/>
<text text-anchor="middle" x="1642" y="-496" font-family="Times,serif" font-size="25.00">logic.QueryBuilder</text>
</g>
<!-- svc_logger.Service:QueryBuilder&#45;&gt;logic.QueryBuilder -->
<g id="edge23" class="edge">
<title>svc_logger.Service:QueryBuilder&#45;&gt;logic.QueryBuilder</title>
<path fill="none" stroke="black" d="M1681.07,-587.79C1674.95,-574.5 1667.67,-558.7 1661.06,-544.35"/>
<polygon fill="black" stroke="black" points="1664.38,-543.21 1657.02,-535.59 1658.03,-546.14 1664.38,-543.21"/>
</g>
<!-- logic_query_builder.QueryBuilder -->
<g id="node25" class="node">
<title>logic_query_builder.QueryBuilder</title>
<polygon fill="#d4f9d1" stroke="black" points="1737,-353 1379,-353 1379,-317 1743,-317 1743,-347 1737,-353"/>
<polyline fill="none" stroke="black" points="1737,-353 1737,-347"/>
<polyline fill="none" stroke="black" points="1743,-347 1737,-347"/>
<text text-anchor="middle" x="1561" y="-329" font-family="Times,serif" font-size="25.00">logic_query_builder.QueryBuilder</text>
</g>
<!-- logic.QueryBuilder&#45;&gt;logic_query_builder.QueryBuilder -->
<g id="edge24" class="edge">
<title>logic.QueryBuilder&#45;&gt;logic_query_builder.QueryBuilder</title>
<path fill="none" stroke="black" stroke-dasharray="5,2" d="M1626.57,-469.58C1611.51,-438.9 1588.83,-392.69 1574.48,-363.45"/>
<polygon fill="black" stroke="black" points="1577.63,-361.93 1570.08,-354.5 1571.35,-365.02 1577.63,-361.93"/>
<text text-anchor="middle" x="1628" y="-439.8" font-family="Times,serif" font-size="14.00">impl</text>
</g>
<!-- logic.LogParser -->
<g id="node27" class="node">
<title>logic.LogParser</title>
<polygon fill="#f9e3b5" stroke="black" points="2015,-534 1819,-534 1819,-530 1815,-530 1815,-526 1819,-526 1819,-478 1815,-478 1815,-474 1819,-474 1819,-470 2015,-470 2015,-534"/>
<polyline fill="none" stroke="black" points="1819,-530 1823,-530 1823,-526 1819,-526"/>
<polyline fill="none" stroke="black" points="1819,-478 1823,-478 1823,-474 1819,-474"/>
<text text-anchor="middle" x="1917" y="-496" font-family="Times,serif" font-size="25.00">logic.LogParser</text>
</g>
<!-- svc_logger.Service:LogParser&#45;&gt;logic.LogParser -->
<g id="edge26" class="edge">
<title>svc_logger.Service:LogParser&#45;&gt;logic.LogParser</title>
<path fill="none" stroke="black" d="M1873.5,-587.79C1880.32,-574.5 1888.43,-558.7 1895.79,-544.35"/>
<polygon fill="black" stroke="black" points="1898.84,-546.06 1900.29,-535.56 1892.62,-542.86 1898.84,-546.06"/>
</g>
<!-- logic_log_parser.LogParser -->
<g id="node28" class="node">
<title>logic_log_parser.LogParser</title>
<polygon fill="#b7d3ff" stroke="black" points="2107,-367 1805,-367 1805,-371 1793,-371 1793,-303 2107,-303 2107,-367"/>
<polyline fill="none" stroke="black" points="1793,-367 1805,-367"/>
<text text-anchor="middle" x="1950" y="-329" font-family="Times,serif" font-size="25.00">logic_log_parser.LogParser</text>
</g>
<!-- logic.LogParser&#45;&gt;logic_log_parser.LogParser -->
<g id="edge27" class="edge">
<title>logic.LogParser&#45;&gt;logic_log_parser.LogParser</title>
<path fill="none" stroke="black" stroke-dasharray="5,2" d="M1923.28,-469.58C1928.45,-443.77 1935.8,-406.98 1941.49,-378.54"/>
<polygon fill="black" stroke="black" points="1944.91,-379.28 1943.44,-368.79 1938.05,-377.91 1944.91,-379.28"/>
<text text-anchor="middle" x="1942" y="-439.8" font-family="Times,serif" font-size="14.00">impl</text>
</g>
<!-- logic_log_parser.LogParser:LuaState -->
<g id="node29" class="node">
<title>logic_log_parser.LogParser:LuaState</title>
<polygon fill="#f0bca2" stroke="black" points="2006.5,-266 1893.5,-266 1893.5,-207 2006.5,-207 2006.5,-266"/>
<text text-anchor="middle" x="1950" y="-231" font-family="Times,serif" font-size="21.25">LuaState</text>
</g>
<!-- logic_log_parser.LogParser&#45;&gt;logic_log_parser.LogParser:LuaState -->
<g id="edge28" class="edge">
<title>logic_log_parser.LogParser&#45;&gt;logic_log_parser.LogParser:LuaState</title>
<path fill="none" stroke="black" d="M1950,-302.67C1950,-293.92 1950,-284.32 1950,-275.24"/>
<ellipse fill="black" stroke="black" cx="1950" cy="-270.89" rx="4" ry="4"/>
</g>
<!-- logic.LuaState -->
<g id="node30" class="node">
<title>logic.LuaState</title>
<polygon fill="#f9e3b5" stroke="black" points="2044.5,-155 1855.5,-155 1855.5,-151 1851.5,-151 1851.5,-147 1855.5,-147 1855.5,-96 1851.5,-96 1851.5,-92 1855.5,-92 1855.5,-88 2044.5,-88 2044.5,-155"/>
<polyline fill="none" stroke="black" points="1855.5,-151 1859.5,-151 1859.5,-147 1855.5,-147"/>
<polyline fill="none" stroke="black" points="1855.5,-96 1859.5,-96 1859.5,-92 1855.5,-92"/>
<text text-anchor="middle" x="1950" y="-115.2" font-family="Times,serif" font-size="26.00">logic.LuaState</text>
</g>
<!-- logic_log_parser.LogParser:LuaState&#45;&gt;logic.LuaState -->
<g id="edge29" class="edge">
<title>logic_log_parser.LogParser:LuaState&#45;&gt;logic.LuaState</title>
<path fill="none" stroke="black" d="M1950,-206.69C1950,-194.56 1950,-180.15 1950,-166.72"/>
<polygon fill="black" stroke="black" points="1953.5,-166.76 1950,-156.76 1946.5,-166.76 1953.5,-166.76"/>
</g>
<!-- logic_lua_state.LuaState -->
<g id="node31" class="node">
<title>logic_lua_state.LuaState</title>
<polygon fill="#d4f9d1" stroke="black" points="2079.5,-37 1814.5,-37 1814.5,0 2085.5,0 2085.5,-31 2079.5,-37"/>
<polyline fill="none" stroke="black" points="2079.5,-37 2079.5,-31"/>
<polyline fill="none" stroke="black" points="2085.5,-31 2079.5,-31"/>
<text text-anchor="middle" x="1950" y="-12.2" font-family="Times,serif" font-size="26.00">logic_lua_state.LuaState</text>
</g>
<!-- logic.LuaState&#45;&gt;logic_lua_state.LuaState -->
<g id="edge30" class="edge">
<title>logic.LuaState&#45;&gt;logic_lua_state.LuaState</title>
<path fill="none" stroke="black" stroke-dasharray="5,2" d="M1950,-87.71C1950,-75.18 1950,-60.99 1950,-48.8"/>
<polygon fill="black" stroke="black" points="1953.5,-48.94 1950,-38.94 1946.5,-48.94 1953.5,-48.94"/>
<text text-anchor="middle" x="1963" y="-58.8" font-family="Times,serif" font-size="14.00">impl</text>
</g>
<!-- logic.AggregationParser -->
<g id="node33" class="node">
<title>logic.AggregationParser</title>
<polygon fill="#f9e3b5" stroke="black" points="2447,-534 2165,-534 2165,-530 2161,-530 2161,-526 2165,-526 2165,-478 2161,-478 2161,-474 2165,-474 2165,-470 2447,-470 2447,-534"/>
<polyline fill="none" stroke="black" points="2165,-530 2169,-530 2169,-526 2165,-526"/>
<polyline fill="none" stroke="black" points="2165,-478 2169,-478 2169,-474 2165,-474"/>
<text text-anchor="middle" x="2306" y="-496" font-family="Times,serif" font-size="25.00">logic.AggregationParser</text>
</g>
<!-- svc_logger.Service:AggregationParser&#45;&gt;logic.AggregationParser -->
<g id="edge32" class="edge">
<title>svc_logger.Service:AggregationParser&#45;&gt;logic.AggregationParser</title>
<path fill="none" stroke="black" d="M2112.44,-587.63C2146.66,-572.67 2188.14,-554.54 2223.92,-538.89"/>
<polygon fill="black" stroke="black" points="2225.18,-542.16 2232.94,-534.94 2222.38,-535.74 2225.18,-542.16"/>
</g>
<!-- logic_aggregation_parser.AggregationParser -->
<g id="node34" class="node">
<title>logic_aggregation_parser.AggregationParser</title>
<polygon fill="#d4f9d1" stroke="black" points="2618.5,-353 2157.5,-353 2157.5,-317 2624.5,-317 2624.5,-347 2618.5,-353"/>
<polyline fill="none" stroke="black" points="2618.5,-353 2618.5,-347"/>
<polyline fill="none" stroke="black" points="2624.5,-347 2618.5,-347"/>
<text text-anchor="middle" x="2391" y="-329" font-family="Times,serif" font-size="25.00">logic_aggregation_parser.AggregationParser</text>
</g>
<!-- logic.AggregationParser&#45;&gt;logic_aggregation_parser.AggregationParser -->
<g id="edge33" class="edge">
<title>logic.AggregationParser&#45;&gt;logic_aggregation_parser.AggregationParser</title>
<path fill="none" stroke="black" stroke-dasharray="5,2" d="M2322.19,-469.58C2338.06,-438.76 2362.01,-392.28 2377.06,-363.06"/>
<polygon fill="black" stroke="black" points="2380.01,-364.98 2381.48,-354.49 2373.79,-361.77 2380.01,-364.98"/>
<text text-anchor="middle" x="2351" y="-439.8" font-family="Times,serif" font-size="14.00">impl</text>
</g>
</g>
</svg>
